<svg width="23" height="23"
            fill="currentColor" viewBox="0 0 32 32" xmlns="http://www.w3.org/2000/svg"><path d="m16.029297 7c-4.952 0-8.8116095 1.0602969-11.4746095 3.154297-2.292 1.801-3.5546875 4.317891-3.5546875 7.087891 0 4.827999 3.6326563 8.757812 8.0976562 8.757812 2.0699998 0 4.0392968-1.090594 5.2792968-2.933594l1.111328-1.734375c.14-.208.332016-.320312.541016-.320312.208 0 .401297.113734.529297.302734l1.136718 1.771485c1.228 1.825 3.197579 2.914062 5.267579 2.914062 4.357 0 8.037109-4.082062 8.037109-8.914062 0-2.747001-1.250531-5.231094-3.519531-6.996094-2.637-2.0490003-6.489172-3.089844-11.451172-3.089844zm0 2c4.444 0 7.978609.9229687 10.224609 2.667969 2.269 1.765 2.746094 3.920969 2.746094 5.417969 0 3.683999-2.820109 6.914062-6.037109 6.914062-1.403 0-2.753657-.758672-3.597657-2.013672l-1.136718-1.769531c-.508-.754-1.329219-1.205078-2.199219-1.205078-.869 0-1.691891.448656-2.212891 1.222656l-1.113281 1.734375c-.855 1.272-2.202469 2.03125-3.6054688 2.03125-3.6469999 0-6.0976562-3.494812-6.0976562-6.757812 0-2.143001.9900625-4.101626 2.7890625-5.515626 2.27-1.7839995 5.8112345-2.726562 10.2402345-2.726562zm-6.029297 3c-2.376 0-3.8987031 1.463937-4.5957031 2.335938-.539.674999-.539 1.654125 0 2.328124.697.873 2.2207031 2.335938 4.5957031 2.335938 2.376 0 3.898703-1.463938 4.595703-2.335938.539-.674999.539-1.654125 0-2.328124-.697-.873-2.220703-2.335938-4.595703-2.335938zm12 0c-2.376 0-3.898703 1.463937-4.595703 2.335938-.539.674999-.539 1.654125 0 2.328124.697.873 2.220703 2.335938 4.595703 2.335938 2.376 0 3.898703-1.463938 4.595703-2.335938.539-.674999.539-1.654125 0-2.328124-.697-.873-2.220703-2.335938-4.595703-2.335938zm-12 2c1.467 0 2.464844.903 2.964844 1.5-.499.597-1.496844 1.5-2.964844 1.5-1.467 0-2.4648438-.903-2.9648438-1.5.4990001-.597 1.4968438-1.5 2.9648438-1.5zm12 0c1.467 0 2.464844.903 2.964844 1.5-.499.597-1.496844 1.5-2.964844 1.5-1.467 0-2.464844-.903-2.964844-1.5.499-.597 1.496844-1.5 2.964844-1.5z"/></svg>
