<svg height="24" viewBox="0 0 24 24" width="24" xmlns="http://www.w3.org/2000/svg"><path d="m5 12h14v-6.5c0-.82842712-.6715729-1.5-1.5-1.5h-1.5v2.5c0 .27614237-.2238576.5-.5.5s-.5-.22385763-.5-.5v-2.5h-5v1.5c0 .27614237-.22385763.5-.5.5s-.5-.22385763-.5-.5v-1.5h-1v3.5c0 .27614237-.22385763.5-.5.5s-.5-.22385763-.5-.5v-3.5h-.5c-.82842712 0-1.5.67157288-1.5 1.5zm0 1v.5c0 .8284271.67157288 1.5 1.5 1.5h4c.2761424 0 .5.2238576.5.5v3.5c0 .5522847.4477153 1 1 1s1-.4477153 1-1v-3.5c0-.2761424.2238576-.5.5-.5h4c.8284271 0 1.5-.6715729 1.5-1.5v-.5zm1.5 3c-1.38071187 0-2.5-1.1192881-2.5-2.5v-8c0-1.38071187 1.11928813-2.5 2.5-2.5h11c1.3807119 0 2.5 1.11928813 2.5 2.5v8c0 1.3807119-1.1192881 2.5-2.5 2.5h-3.5v3c0 1.1045695-.8954305 2-2 2s-2-.8954305-2-2v-3z"></path></svg>
