<svg fill="none" height="35px" viewBox="0 0 20 20" width="35px" xmlns="http://www.w3.org/2000/svg">
                    <g fill="#212121">
                        <path d="M5 7c0-.552.448-1 1-1h8c.552 0 1 .448 1 1v2c0 .552-.448 1-1 1h-8c-.552 0-1-.448-1-1zm9 0h-8v2h8z" fill="currentColor"/>
                        <path d="M12 11c-.552 0-1 .448-1 1v1c0 .552.448 1 1 1h2c.552 0 1-.448 1-1v-1c0-.552-.448-1-1-1zm0 1h2v1h-2z" fill="currentColor"/>
                        <path d="M5 11.5c0-.276.224-.5.5-.5h4c.276 0 .5.224.5.5s-.224.5-.5.5h-4c-.276 0-.5-.224-.5-.5z" fill="currentColor"/>
                        <path d="M5.5 13c-.276 0-.5.224-.5.5s.224.5.5.5h4c.276 0 .5-.224.5-.5s-.224-.5-.5-.5z" fill="currentColor"/>
                        <path d="M3 6c0-1.657 1.343-3 3-3h8c1.657 0 3 1.343 3 3v8c0 1.657-1.343 3-3 3h-8c-1.657 0-3-1.343-3-3zm3-2c-1.105 0-2 .895-2 2v8c0 1.105.895 2 2 2h8c1.105 0 2-.895 2-2v-8c0-1.105-.895-2-2-2z" fill="currentColor"/>
                    </g>
                 </svg>