<svg width="22px" height="22px" viewBox="0 0 24 24" xmlns="http://www.w3.org/2000/svg" fill="currentColor">
                    <path d="m20.9955 11.7115.9995-.0315c-.0098-.3099-.1628-.5978-.4141-.7793-.2514-.1815-.5728-.2361-.87-.1479zm-8.707-8.70696.9587.28459c.0882-.29724.0336-.6186-.1479-.86998-.1815-.25139-.4694-.40436-.7793-.41412zm8.4224 7.74826c-.541.1606-1.115.2472-1.7109.2472v2c.7907 0 1.5563-.115 2.2801-.3299zm-1.7109.2472c-3.3137 0-6-2.68629-6-6h-2c0 4.41828 3.5817 8 8 8zm-6-6c0-.59593.0866-1.16989.2472-1.71087l-1.9173-.56919c-.2149.72377-.3299 1.48937-.3299 2.28006zm-1-1c.086 0 .1717.00135.2571.00404l.0629-1.99901c-.1063-.00334-.213-.00503-.32-.00503zm-8 8c0-4.41828 3.58172-8 8-8v-2c-5.52285 0-10 4.47715-10 10zm8 8c-4.41828 0-8-3.5817-8-8h-2c0 5.5228 4.47715 10 10 10zm8-8c0 4.4183-3.5817 8-8 8v2c5.5228 0 10-4.4772 10-10zm-.004-.2571c.0026.0854.004.1711.004.2571h2c0-.107-.0017-.2137-.005-.32z" fill="currentColor""/>
                 </svg>