<svg height="24" width="24" viewBox="0 0 24 24" xmlns="http://www.w3.org/2000/svg">
    <path d="m9 3.5v-1.5m-3.93934 3.06066-1.06066-1.06066m1.06066 9-1.06066 1.0607m9-9.00004 1.0607-1.06066m-10.5607 5h-1.5m13.8645 7.1896-2.4918 4.6274c-.2846.5287-.427.793-.5982.8599-.1486.058-.316.0416-.4505-.0441-.1551-.0988-.2434-.3857-.4202-.9595l-3.45861-11.22805c-.14439-.46874-.21659-.70312-.1585-.86142.0506-.13788.15926-.24654.29714-.29713.1583-.05809.39267.0141.86142.15849l11.22795 3.45861c.5738.1768.8607.2652.9595.4202.0858.1346.1021.3019.0441.4505-.0668.1713-.3312.3136-.8598.5983l-4.6274 2.4917c-.0786.0423-.1179.0634-.1522.0906-.0306.0241-.0582.0517-.0823.0823-.0272.0343-.0483.0736-.0906.1522z" stroke="currentColor" stroke-linecap="round" stroke-linejoin="round" stroke-width="2"/>
</svg>
